<svg xmlns="http://www.w3.org/2000/svg" viewBox="0 0 32 32"><g data-name="37-User"><path d="M10 10V8a6 6 0 0 1 12 0v2a1 1 0 0 0 1 1v2h2v-2a2 2 0 0 0-1-1.73V8A8 8 0 0 0 8 8v1.27A2 2 0 0 0 7 11v2a2 2 0 0 0 1 1.75 8.07 8.07 0 0 0 4 6.16v1.39L4.7 25c-.91.23-4.7 1.37-4.7 4v2a1 1 0 0 0 1 1h14v-2H2v-1c0-.78 1.92-1.7 3.24-2h.11l8-3a1 1 0 0 0 .65-1v-2.69a1 1 0 0 0-.57-.9A6 6 0 0 1 10 14a1 1 0 0 0-1-1v-2a1 1 0 0 0 1-1zM31.71 22.29l-3-3-1.41 1.41 1.29 1.3H21v2h7.59l-1.29 1.29 1.41 1.41 3-3a1 1 0 0 0 0-1.41z"/><path d="M23 27a1 1 0 0 1-1 1h-3V18h3a1 1 0 0 1 1 1v1h2v-1a3 3 0 0 0-3-3h-4a1 1 0 0 0-1 1v12a1 1 0 0 0 1 1h4a3 3 0 0 0 3-3v-1h-2z"/></g></svg>